<?xml version="1.0" standalone="no"?><!-- Generator: Adobe Fireworks CS6, Export SVG Extension by Aaron Beall (http://fireworks.abeall.com) . Version: 0.6.1  --><!DOCTYPE svg PUBLIC "-//W3C//DTD SVG 1.1//EN" "http://www.w3.org/Graphics/SVG/1.1/DTD/svg11.dtd"><svg id="Untitled-Page%201" viewBox="0 0 21 21" style="background-color:#ffffff00" version="1.1"	xmlns="http://www.w3.org/2000/svg" xmlns:xlink="http://www.w3.org/1999/xlink" xml:space="preserve"	x="0px" y="0px" width="21px" height="21px">	<path d="M 17 17 L 19 17 L 19 19 L 17 19 L 17 17 ZM 17 14 L 19 14 L 19 16 L 17 16 L 17 14 ZM 17 11 L 19 11 L 19 13 L 17 13 L 17 11 ZM 17 8 L 19 8 L 19 10 L 17 10 L 17 8 ZM 14 17 L 16 17 L 16 19 L 14 19 L 14 17 ZM 14 14 L 16 14 L 16 16 L 14 16 L 14 14 ZM 14 11 L 16 11 L 16 13 L 14 13 L 14 11 ZM 14 8 L 16 8 L 16 10 L 14 10 L 14 8 ZM 11 17 L 13 17 L 13 19 L 11 19 L 11 17 ZM 11 14 L 13 14 L 13 16 L 11 16 L 11 14 ZM 11 11 L 13 11 L 13 13 L 11 13 L 11 11 ZM 11 8 L 13 8 L 13 10 L 11 10 L 11 8 ZM 8 17 L 10 17 L 10 19 L 8 19 L 8 17 ZM 8 14 L 10 14 L 10 16 L 8 16 L 8 14 ZM 8 11 L 10 11 L 10 13 L 8 13 L 8 11 ZM 8 8 L 10 8 L 10 10 L 8 10 L 8 8 ZM 5 17 L 7 17 L 7 19 L 5 19 L 5 17 ZM 5 14 L 7 14 L 7 16 L 5 16 L 5 14 ZM 5 11 L 7 11 L 7 13 L 5 13 L 5 11 ZM 5 8 L 7 8 L 7 10 L 5 10 L 5 8 ZM 2 17 L 4 17 L 4 19 L 2 19 L 2 17 ZM 2 14 L 4 14 L 4 16 L 2 16 L 2 14 ZM 2 11 L 4 11 L 4 13 L 2 13 L 2 11 ZM 2 8 L 4 8 L 4 10 L 2 10 L 2 8 ZM 2 2 C 1 2 0 3 0 4 L 0 19 C 0 20 1 21 2 21 L 19 21 C 20 21 21 20 21 19 L 21 4 C 21 3 20 2 19 2 L 18 2 L 18 5 L 14 5 L 14 2 L 7 2 L 7 5 L 3 5 L 3 2 L 2 2 ZM 15 0 L 15 4 L 17 4 L 17 0 L 15 0 ZM 4 0 L 4 4 L 6 4 L 6 0 L 4 0 Z" fill="#cccccc"/></svg>